<svg width="14" height="14" viewBox="0 0 14 14" fill="none" xmlns="http://www.w3.org/2000/svg">
<g clip-path="url(#clip0_6957_23773)">
<path d="M4.08329 12.8337V6.41699M1.16663 7.58366V11.667C1.16663 12.3113 1.68896 12.8337 2.33329 12.8337H10.1653C11.029 12.8337 11.7636 12.2035 11.8949 11.3498L12.5231 7.26643C12.6862 6.20635 11.866 5.25033 10.7935 5.25033H8.74996C8.42779 5.25033 8.16663 4.98916 8.16663 4.66699V2.6054C8.16663 1.81099 7.52263 1.16699 6.72822 1.16699C6.53874 1.16699 6.36703 1.27858 6.29008 1.45173L4.23726 6.07057C4.14363 6.28123 3.93473 6.41699 3.7042 6.41699H2.33329C1.68896 6.41699 1.16663 6.93933 1.16663 7.58366Z" stroke="#1773B0" stroke-width="1.16667" stroke-linecap="round" stroke-linejoin="round"/>
</g>
<defs>
<clipPath id="clip0_6957_23773">
<rect width="14" height="14" fill="white"/>
</clipPath>
</defs>
</svg>
